inDegrees=no
num_controls=7
num_derivatives=13
num_iterations=107
num_multipliers=7
num_parameters=0
num_slacks=7
num_states=26
objective=0.430850
objective_accelerations=0.001982
objective_balance=0.001713
objective_effort=0.003686
objective_height=0.402994
objective_ligament=0.020476
solver_duration=1380.129339
status=Solve_Succeeded
success=true
DataType=double
version=3
OpenSimVersion=4.5
endheader
time	/jointset/ground_pelvis/pelvis_tilt/value	/jointset/ground_pelvis/pelvis_tx/value	/jointset/ground_pelvis/pelvis_ty/value	/jointset/hip_l/hip_flexion_l/value	/jointset/hip_l/hip_adduction_l/value	/jointset/hip_l/hip_rotation_l/value	/jointset/back/lumbar_extension/value	/jointset/patellofemoral_l/patellar_flexion_l/value	/jointset/knee_l/knee_flexion_l/value	/jointset/knee_l/knee_adduction_l/value	/jointset/knee_l/knee_rotation_l/value	/jointset/ankle_l/ankle_angle_l/value	/jointset/subtalar_l/subtalar_angle_l/value	/jointset/ground_pelvis/pelvis_tilt/speed	/jointset/ground_pelvis/pelvis_tx/speed	/jointset/ground_pelvis/pelvis_ty/speed	/jointset/hip_l/hip_flexion_l/speed	/jointset/hip_l/hip_adduction_l/speed	/jointset/hip_l/hip_rotation_l/speed	/jointset/back/lumbar_extension/speed	/jointset/patellofemoral_l/patellar_flexion_l/speed	/jointset/knee_l/knee_flexion_l/speed	/jointset/knee_l/knee_adduction_l/speed	/jointset/knee_l/knee_rotation_l/speed	/jointset/ankle_l/ankle_angle_l/speed	/jointset/subtalar_l/subtalar_angle_l/speed	/forceset/tau_hip_flexion_l	/forceset/tau_hip_adduction_l	/forceset/tau_hip_rotation_l	/forceset/tau_knee_flexion_l	/forceset/tau_ankle_angle_l	/forceset/tau_subtalar_angle_l	/forceset/tau_lumbar_extension	lambda_cid13_p0	lambda_cid13_p1	lambda_cid13_p2	lambda_cid13_p3	lambda_cid13_p4	lambda_cid13_p5	lambda_cid14_p0	/jointset/ground_pelvis/pelvis_tilt/accel	/jointset/ground_pelvis/pelvis_tx/accel	/jointset/ground_pelvis/pelvis_ty/accel	/jointset/hip_l/hip_flexion_l/accel	/jointset/hip_l/hip_adduction_l/accel	/jointset/hip_l/hip_rotation_l/accel	/jointset/back/lumbar_extension/accel	/jointset/patellofemoral_l/patellar_flexion_l/accel	/jointset/knee_l/knee_flexion_l/accel	/jointset/knee_l/knee_adduction_l/accel	/jointset/knee_l/knee_rotation_l/accel	/jointset/ankle_l/ankle_angle_l/accel	/jointset/subtalar_l/subtalar_angle_l/accel	gamma_cid13_p0	gamma_cid13_p1	gamma_cid13_p2	gamma_cid13_p3	gamma_cid13_p4	gamma_cid13_p5	gamma_cid14_p0
1	-0.0189071956234408	0.14781369791624	0.9077760588383262	0.1326448100442325	-0.271998635897638	-0.3142198888437187	-0.1575814155413333	0.138738122837221	0.1387381228372827	0.01251570306877586	-0.1736553426745518	0.1262387321851162	0.2029964030894961	-0.1353383051569514	0.0374028341078036	-0.002208592627646458	0.02919499415678647	0.03913989416094335	-0.05220360334428331	0.1403432169018733	-0.1428884864224595	-0.1428884864224676	0.0340157180336285	0.004486358303525092	-0.02764372769181332	0.03468173912026161	0.0266466778445522	0.05830617302563421	-0.006340833648574153	-0.07523392932132192	-0.0003026617329510968	-0.05775356810431449	0.01766203961906562	-31.53487079584447	25.92542107435908	0.9297190135416924	4.676654682316205	-461.4253828233964	-26.60913312657802	-25.27574275977511	0.001824787060465218	-0.09078066857444334	0.002081857253948932	0.05069206736940243	0.0140629945906536	0.01590865568158204	0.1176366947016902	-0.1181728968665857	-0.1181728968665845	-0.02908663787810065	0.0115841311536569	-0.176656073663723	-0.05853875178389617	4.845174610777336e-11	1.351329555249961e-09	-3.042173375042e-09	5.202011022565634e-10	-2.156594059818395e-09	2.438943006826389e-09	5.399447536284505e-10
1.01	-0.0202604573082521	0.1481831858705556	0.9077540719488445	0.1329393210974888	-0.2716065742087652	-0.3147410950479944	-0.1561721588960239	0.1373034501449636	0.1373034501449702	0.01285436292085859	-0.1736099136342046	0.1259535153291604	0.2033402661649207	-0.1353106547883099	0.03649458278679096	-0.002188843336139084	0.02970629935912042	0.03927113440532404	-0.05203607976882331	0.1415022130462775	-0.1440408822342727	-0.1440408822342723	0.03371528092639727	0.004598994100513864	-0.02939716383668423	0.03409016722273345	0.02646433508542863	0.05842679129771411	-0.006382784274128779	-0.07443003293395258	-0.0007718327026634802	-0.05774835573866926	0.0176368518944858	-31.67980165259953	25.90701693281877	0.9800752554905635	4.667544287445326	-461.4091766398085	-26.59720747434843	-25.25977304414898	0.003741858820619265	-0.09087335586860736	0.001912352778849278	0.05121228395309747	0.01245843237596703	0.01740838102318795	0.1141462072795356	-0.1129975604268693	-0.1129975604255585	-0.03066809100672383	0.01103444750558395	-0.1743153595588688	-0.05957255989213894	6.358522417633673e-11	1.292519155100483e-09	-3.018630403132404e-09	5.16482427872264e-10	-2.012489860051612e-09	2.377680159532293e-09	5.317059949484623e-10
1.02	-0.02161334114996775	0.1485435861132604	0.9077322807298137	0.1332389177102238	-0.2712132393388459	-0.3152605791820066	-0.1547514892626777	0.1358574085671691	0.1358574085671217	0.0131899892330977	-0.1735633720071826	0.1256508385168234	0.203678192291139	-0.1352627365374817	0.03558529178565492	-0.002169458537442184	0.03021210605296815	0.03939453037027164	-0.05185918929156318	0.1426258145094677	-0.1451622635296139	-0.1451622635296049	0.03340901006472238	0.004708875638868419	-0.03113571896795981	0.0334943492790107	0.02628199232628985	0.05854740956979865	-0.006424734899663022	-0.07362613654659074	-0.001241003672378486	-0.05774314337302001	0.01761166416989209	-31.82533916987446	25.88822531595279	1.031057192801746	4.664120932825474	-461.4025540246483	-26.58886993021672	-25.24342005933744	0.005878363497829218	-0.09098860459912725	0.002008958691854631	0.04959236567215881	0.01249413870403666	0.01778203604161134	0.1105577584588774	-0.1119699935721719	-0.1119699935721701	-0.03025338876683166	0.0110332794268142	-0.1736798709446614	-0.05938796102281754	1.090075232254932e-10	1.292809801764694e-09	-3.040385244498452e-09	4.75594011986747e-10	-2.028129940078771e-09	2.410379804954733e-09	5.478625058732359e-10
1.03	-0.02296564264835104	0.1488948902322364	0.9077106817962823	0.1335435390521441	-0.2708187094202957	-0.3157782451349898	-0.1533197646855687	0.1344003061823169	0.1344003061823228	0.01352252400696774	-0.1735157410999359	0.1253308522917982	0.2040101403129223	-0.1351941261826408	0.03467554282026719	-0.002150395148281789	0.03071105219518549	0.03951012548567137	-0.05167234248575703	0.1437128984725738	-0.1462528331680657	-0.1462528331680625	0.03309705461000516	0.004817003226355461	-0.03285869590612813	0.03289469327357532	0.02611133636999568	0.05865429208521181	-0.006465277045423189	-0.07284769254594478	-0.00165938382794759	-0.05774415258785495	0.01757697866244434	-31.95451501800681	25.87145638391722	1.079220335111891	4.649425886729796	-461.3860864914527	-26.57872125577753	-25.22668100307352	0.007868064029003237	-0.09096633428884926	0.001844572926530149	0.04987933102504601	0.01089330405422562	0.01938534006968157	0.1068533492978169	-0.1067935209406921	-0.1067935209415154	-0.03180027404089237	0.01065660192912029	-0.1711819919049079	-0.06033852787030711	1.547388918764927e-10	1.293703520335169e-09	-3.062602308448946e-09	4.343263130246868e-10	-2.045400063777298e-09	2.444038251323262e-09	5.642679481205071e-10
1.04	-0.02431715490467747	0.1492370972032027	0.9076892714054223	0.1338531165739884	-0.2704230633293724	-0.3162939927524711	-0.1518773553420177	0.1329324594866832	0.1329324594867492	0.01385191249625135	-0.1734670380961154	0.1249937212200608	0.2043360749531381	-0.1351048881257259	0.03376586218370528	-0.002131750003182021	0.03120334203855055	0.0396177648449225	-0.05147552219116765	0.1447627677981291	-0.1473111256848781	-0.1473111256848807	0.03277975314661838	0.00492329495462359	-0.03456468831037705	0.03229167296548332	0.02594068041366598	0.05876117460062663	-0.006505819191133847	-0.07206924854531539	-0.002077763983523919	-0.05774516180269161	0.0175422931549698	-32.08426743565433	25.85431607357158	1.127982201647649	4.640330136071701	-461.3786655836428	-26.5720161794102	-25.20955335337655	0.01000390391261766	-0.09097493883396467	0.001925309879729123	0.04826110590170048	0.01090298747431917	0.01977673379825912	0.1031148309486919	-0.105514569244279	-0.1055145692442791	-0.0313225905007398	0.01066610758303426	-0.1702829641607816	-0.06006082155414174	1.64674313125935e-10	1.289626140581648e-09	-3.035224217437782e-09	4.204598098927602e-10	-1.989473876721235e-09	2.453238229988777e-09	5.544732912697287e-10
1.05	-0.02566767031826064	0.149570207170528	0.9076680455623107	0.1341675835956515	-0.2700263792490454	-0.3168077230432688	-0.1504246320263832	0.1314541917327372	0.1314541917327414	0.01417810474639213	-0.1734172810535573	0.124639615220007	0.2046559644655106	-0.1349947607248464	0.03285607398726155	-0.002113504350013556	0.03168935807452828	0.03971778181134348	-0.05126892988856453	0.1457759497769827	-0.1483365395431603	-0.1483365395431618	0.03245815007803551	0.005027711155709791	-0.03625348930739748	0.03168584055233106	0.0257713934832767	0.05886507659338591	-0.006545943256526588	-0.0712947809529549	-0.002476170614140369	-0.05775171510408777	0.01750511935089115	-32.20750719878038	25.8390585491848	1.175741070989141	4.62820045401234	-461.3620426447928	-26.56081467985684	-25.19203457003228	0.01203238281123093	-0.09098927279887732	0.001760947734683742	0.04866633012315429	0.009360921900712875	0.02134189364653366	0.09952804860204342	-0.1001720685864815	-0.1001720685862788	-0.03266132010815233	0.01026851879247443	-0.1677252125720137	-0.06090263779957836	1.734911110190788e-10	1.285393414005503e-09	-3.006296277834066e-09	4.074495941305252e-10	-1.931260304954092e-09	2.461673881538573e-09	5.438598813221362e-10
